<svg xmlns="http://www.w3.org/2000/svg" viewBox="0 0 960.26 190.76"><defs><style>.cls-1{fill:none;stroke:#eb2c3b;stroke-linecap:round;stroke-linejoin:round;stroke-width:10px;}</style></defs><g id="Layer_2" data-name="Layer 2"><g id="map-path"><polyline class="cls-1" points="955.26 157.89 918.94 161.27 888.53 181.54 865.73 185.76 858.97 171.82 831.94 163.8 806.6 164.64 796.46 154.51 782.11 160.42 747.47 161.27 734.8 154.51 704.39 154.51 682.43 161.27 652.33 170.13 623.3 170.13 604.72 178.16 570.93 178.16 544.75 165.49 510.12 154.51 487.31 157.89 463.66 157.89 434.94 154.51 398.62 140.15 384.26 130.01 363.99 130.01 333.58 110.58 315.84 92.85 304.02 92.85 292.19 98.76 268.54 97.07 241.51 87.78 222.93 87.78 197.59 95.38 184.92 92.85 171.4 78.49 165.49 64.13 151.13 60.75 131.7 47.23 118.19 31.18 93.69 23.58 66.66 23.58 40.48 23.58 21.89 15.14 5 5"/></g></g></svg>